<svg xmlns="http://www.w3.org/2000/svg" viewBox="182 385 1098 309">
  <g fill="none" stroke-width="9.5" stroke-linejoin="round">
    <path d="M238.5 596.5h-27a19.5 19.5 0 0 1-19.5-19.5V414.5a20 20 0 0 1 20-20h196a20 20 0 0 1 20 20v21" stroke="#8a9c96"/>
    <path d="M294.5 644h-23a20 20 0 0 1-20-20V467.5a20 20 0 0 1 20-20h184a20 20 0 0 1 20 20v21" stroke="#79b3a6"/>
    <rect x="307" y="500.5" width="216" height="184" rx="20" fill="#faf9f5" stroke="#094f40"/>
  </g>
  <g fill="#8a9c96"><circle cx="222.5" cy="422.5" r="6.7"/><circle cx="249" cy="422.5" r="6.7"/></g>
  <g fill="#79b3a6"><circle cx="281.5" cy="475.5" r="6.7"/><circle cx="307.5" cy="475.5" r="6.7"/></g>
  <g fill="#094f40"><circle cx="337.8" cy="528.8" r="6.7"/><circle cx="364" cy="528.8" r="6.7"/></g>
  <rect x="331.5" y="568" width="38" height="71" rx="7.5" fill="#89bfb1"/>
  <g fill="none" stroke-width="13.5" stroke-linecap="round">
    <path d="M393 574.8h91.5" stroke="#859b94"/>
    <path d="M393 603.8h91.5" stroke="#c4d1cb"/>
    <path d="M393 632.8h53" stroke="#d6dfda"/>
  </g>
  <path fill="#eef2ef" fill-rule="evenodd" d="M1149,535 1149,626 1163,626 1163,535Z M1041,535 1044,541 1044,543 1046,546 1046,548 1049,553 1050,558 1053,563 1053,565 1055,568 1057,575 1060,580 1060,582 1062,585 1062,587 1064,590 1066,597 1069,602 1069,604 1071,607 1072,612 1075,617 1075,619 1077,622 1078,626 1093,626 1095,622 1095,620 1097,617 1097,615 1099,612 1099,610 1101,607 1101,605 1103,602 1103,600 1106,595 1106,593 1109,587 1109,585 1111,582 1111,580 1114,575 1114,573 1116,570 1118,563 1121,558 1122,553 1127,543 1128,538 1130,535 1115,535 1114,539 1112,542 1112,544 1110,547 1108,555 1106,558 1106,560 1102,568 1101,573 1097,581 1096,586 1094,589 1093,594 1089,602 1088,607 1086,609 1084,606 1084,604 1082,601 1082,599 1080,596 1080,594 1076,586 1076,584 1073,578 1073,576 1070,571 1069,566 1067,563 1067,561 1065,558 1065,556 1063,553 1063,551 1061,548 1061,546 1059,543 1057,536 1056,535Z M1214,535 1203,541 1193,551 1188,560 1188,562 1186,566 1186,569 1185,570 1185,592 1186,593 1188,601 1194,612 1205,622 1213,626 1219,627 1220,628 1225,628 1226,629 1237,629 1238,628 1243,628 1244,627 1247,627 1253,624 1255,624 1260,621 1263,618 1264,618 1269,613 1269,612 1260,603 1253,610 1244,615 1238,616 1237,617 1226,617 1225,616 1222,616 1212,611 1203,601 1201,597 1200,592 1199,591 1199,585 1200,584 1273,584 1273,569 1272,568 1272,565 1271,564 1271,561 1269,558 1269,556 1265,549 1256,540 1246,535 1240,534 1239,533 1221,533 1220,534Z M1199,569 1200,568 1200,566 1203,559 1212,550 1213,550 1215,548 1219,546 1222,546 1223,545 1237,545 1238,546 1245,548 1253,555 1253,556 1257,561 1257,563 1259,567 1259,572 1258,573 1200,573 1199,572Z M958,542 955,545 955,547 963,555 969,550 977,546 980,546 981,545 996,545 997,546 1000,546 1004,548 1010,554 1012,558 1012,560 1013,561 1013,570 1012,571 986,571 985,572 980,572 979,573 975,573 974,574 969,575 961,579 954,586 950,594 950,600 949,601 950,602 950,609 955,619 961,624 967,627 975,628 976,629 986,629 987,628 992,628 1001,624 1010,615 1010,614 1012,612 1013,612 1014,613 1013,614 1013,626 1014,627 1015,626 1026,626 1026,559 1025,558 1024,552 1018,542 1017,542 1014,539 1009,536 1007,536 1003,534 999,534 998,533 980,533 979,534 975,534 974,535 969,536Z M1013,583 1013,593 1012,594 1012,598 1011,599 1011,601 1007,608 998,615 996,615 992,617 987,617 986,618 983,618 982,617 977,617 976,616 974,616 970,614 966,610 964,606 964,603 963,602 964,596 966,592 972,587 976,585 981,584 982,583 987,583 988,582 1012,582Z M892,533 891,534 885,535 879,538 871,546 869,550 869,553 868,554 868,565 869,566 870,571 875,577 884,582 886,582 890,584 893,584 894,585 897,585 898,586 904,587 905,588 912,590 918,596 919,598 919,605 918,606 918,608 912,614 908,615 907,616 904,616 903,617 895,617 894,616 888,615 881,611 875,605 874,605 868,611 867,611 865,613 865,614 870,620 871,620 876,624 883,627 886,627 887,628 892,628 893,629 905,629 906,628 911,628 912,627 917,626 925,621 930,615 933,608 933,594 932,593 932,591 930,587 924,581 916,577 910,576 909,575 903,574 902,573 899,573 887,568 882,562 882,555 883,553 889,547 893,546 894,545 905,545 906,546 909,546 914,549 920,555 922,553 923,553 930,546 930,545 922,538 913,534 910,534 909,533Z M811,533 810,534 807,534 800,537 790,546 788,553 787,554 787,565 788,566 788,568 791,574 797,579 803,582 809,583 810,584 813,584 814,585 817,585 821,587 824,587 833,591 838,597 838,606 837,608 831,614 827,615 826,616 823,616 822,617 814,617 813,616 807,615 799,610 794,605 793,605 785,613 784,613 784,614 788,619 789,619 792,622 800,626 802,626 806,628 811,628 812,629 823,629 824,628 829,628 830,627 833,627 841,623 847,618 852,608 852,604 853,603 852,593 847,584 842,580 838,578 830,576 829,575 826,575 822,573 815,572 806,568 801,562 801,555 802,553 808,547 810,546 813,546 814,545 825,545 826,546 828,546 832,548 839,555 840,555 849,546 849,545 840,537 833,535 832,534 829,534 828,533Z M711,535 700,541 691,550 685,561 685,563 683,567 683,571 682,572 682,590 683,591 683,595 684,596 684,598 686,601 686,603 688,607 693,613 693,614 701,621 708,625 710,625 713,627 716,627 717,628 722,628 723,629 734,629 735,628 740,628 741,627 747,626 757,621 766,613 766,612 757,603 750,610 741,615 739,615 738,616 734,616 733,617 724,617 723,616 720,616 711,612 708,609 707,609 701,602 697,593 696,585 697,584 770,584 770,571 769,570 769,565 768,564 767,559 761,548 754,541 743,535 737,534 736,533 718,533 717,534Z M696,570 697,569 698,563 701,558 710,549 719,545 734,545 743,549 750,555 755,564 755,567 756,568 756,572 755,573 697,573 696,572Z M1153,492 1151,493 1147,498 1147,505 1151,510 1153,511 1159,511 1164,508 1165,504 1166,503 1166,500 1165,499 1165,497 1161,493 1159,492Z M592,492 592,505 634,505 635,506 635,626 649,626 649,507 651,505 652,506 653,505 694,505 694,493 693,492Z"/>
</svg>
